<?xml version="1.0" encoding="UTF-8" standalone="no"?>
<svg
   inkscape:version="1.2.2 (b0a8486541, 2022-12-01)"
   sodipodi:docname="dandi-banner.svg"
   id="svg8"
   version="1.1"
   viewBox="0 0 502.70832 185.20834"
   height="700"
   width="1900"
   inkscape:export-filename="dandi-banner.png"
   inkscape:export-xdpi="151.57895"
   inkscape:export-ydpi="151.57895"
   xmlns:inkscape="http://www.inkscape.org/namespaces/inkscape"
   xmlns:sodipodi="http://sodipodi.sourceforge.net/DTD/sodipodi-0.dtd"
   xmlns="http://www.w3.org/2000/svg"
   xmlns:svg="http://www.w3.org/2000/svg"
   xmlns:rdf="http://www.w3.org/1999/02/22-rdf-syntax-ns#"
   xmlns:cc="http://creativecommons.org/ns#"
   xmlns:dc="http://purl.org/dc/elements/1.1/">
  <defs
     id="defs2">
    <linearGradient
       id="linearGradient4160"
       inkscape:swatch="gradient">
      <stop
         style="stop-color:#ffffff;stop-opacity:1;"
         offset="0"
         id="stop4156" />
      <stop
         style="stop-color:#ffffff;stop-opacity:0;"
         offset="1"
         id="stop4158" />
    </linearGradient>
    <linearGradient
       id="linearGradient2167"
       inkscape:swatch="solid">
      <stop
         style="stop-color:#ffffff;stop-opacity:1;"
         offset="0"
         id="stop2165" />
    </linearGradient>
    <rect
       id="rect82"
       height="172.50835"
       width="2144.0324"
       y="1284.2974"
       x="2133.6699" />
    <filter
       inkscape:collect="always"
       style="color-interpolation-filters:sRGB"
       id="filter4214"
       x="-0.00129303"
       y="-0.0051993341"
       width="1.0025861"
       height="1.0103987">
      <feGaussianBlur
         inkscape:collect="always"
         stdDeviation="0.094464104"
         id="feGaussianBlur4216" />
    </filter>
  </defs>
  <sodipodi:namedview
     inkscape:window-maximized="1"
     inkscape:window-y="0"
     inkscape:window-x="0"
     inkscape:window-height="463"
     inkscape:window-width="1272"
     units="px"
     showgrid="false"
     inkscape:document-rotation="0"
     inkscape:current-layer="layer1"
     inkscape:document-units="mm"
     inkscape:cy="462.14286"
     inkscape:cx="1311.4286"
     inkscape:zoom="0.7"
     inkscape:pageshadow="2"
     inkscape:pageopacity="0.0"
     borderopacity="1.0"
     bordercolor="#666666"
     pagecolor="#ffffff"
     id="base"
     inkscape:showpageshadow="2"
     inkscape:pagecheckerboard="0"
     inkscape:deskcolor="#d1d1d1"
     showguides="true" />
  <metadata
     id="metadata5">
    <rdf:RDF>
      <cc:Work
         rdf:about="">
        <dc:format>image/svg+xml</dc:format>
        <dc:type
           rdf:resource="http://purl.org/dc/dcmitype/StillImage" />
        <dc:title />
      </cc:Work>
    </rdf:RDF>
  </metadata>
  <g
     id="layer1"
     inkscape:groupmode="layer"
     inkscape:label="Layer 1">
    <path
       style="fill:none;stroke:#89d1de;stroke-width:3;stroke-linejoin:round;stroke-dasharray:none;stroke-opacity:1"
       d="m 43.5239,162.72492 105.76915,-0.79211 c 0,0 -1.07154,-14.93905 5.91803,-24.12548 8.59597,-11.29773 8.30109,-129.530208 8.30109,-129.530208 0,0 1.05373,125.666498 2.58684,129.594138 2.5055,6.41878 7.31487,-10.76918 9.533,-17.28708 2.35618,-6.92355 4.55598,-104.495908 4.55598,-104.495908 0,0 -1.39056,113.563638 3.52229,118.232468 2.45643,2.33442 12.60512,-8.5671 13.75269,-15.62229 1.20435,-7.40427 4.5631,-100.479858 4.5631,-100.479858 0,0 -1.42238,103.393768 1.40884,108.646058 2.83122,5.25229 14.01881,-1.61809 16.14207,-9.02816 2.84788,-9.93893 4.28715,-96.777478 4.28715,-96.777478 0,0 -1.13131,99.936178 4.40909,104.826458 4.87761,4.30526 16.42571,-0.68947 18.33621,-10.42973 1.92554,-9.81695 2.61502,-91.911368 2.61502,-91.911368 0,0 0.42483,96.128138 3.81267,101.067438 2.73263,3.98404 18.05421,-0.3608 21.56421,-9.66296 3.29192,-8.72419 2.09681,-89.274158 2.09681,-89.274158 0,0 1.07743,93.682678 6.53657,98.763228 5.45912,5.08055 13.98245,0.50905 18.16421,-7.40841 4.18176,-7.91746 5.59073,-89.224507 5.59073,-89.224507 0,0 -2.57149,93.232517 5.79619,97.862417 8.36768,4.62989 14.40861,-5.19382 19.35794,-9.45434 6.27976,-5.40577 5.13738,-86.632817 5.13738,-86.632817 0,0 0.18026,88.321897 4.15586,92.441877 3.9756,4.11998 8.6171,-4.26771 8.6171,-4.26771 0,0 0.33192,24.40393 10.45649,28.57631 42.47613,15.07712 83.09445,11.88395 127.52355,12.84365 v 0"
       id="path400-6"
       sodipodi:nodetypes="ccscsscsscsscsscsscsscsscscccc" />
    <g
       id="g76"
       transform="matrix(0.12394374,0,0,0.12394374,8.1280985,9.886356)">
      <g
         id="noun_Brain_38917"
         transform="translate(199.31946,246.52887)">
        <polygon
           id="Path-3"
           class="st0"
           points="774.5,40.4 922.4,162.5 1058.1,227.2 1142.1,457.4 1119.8,596.9 951.7,664.8 844.1,536.5 647.5,235.3 641.1,162.5 " />
        <path
           inkscape:connector-curvature="0"
           id="Path-2"
           class="st1"
           d="m 422.6,67.3 c 90,0 174.3,32.4 199.7,115.4 58.2,-4.8 137.9,80.5 137.9,161.3 76.6,26.1 76.6,102.4 73.3,169.1 -2.2,44.5 28.1,90.8 91.1,139.2 L 833.5,751 676.4,790 608.9,848.4 557,877.8 461.4,1038.4 381.5,877.8 258.4,848.4 144.8,790 122.3,718.5 55.7,631.5 84.8,461.3 v -164 L 258.5,125 c 49.3,-38.5 104,-57.7 164.1,-57.7 z" />
        <path
           inkscape:connector-curvature="0"
           id="Shape"
           class="st2"
           d="m 1029.3,597.5 c -16.4,6 -36.6,10.2 -56.5,10.2 -20.5,0 -40.9,-4.5 -56.4,-16.3 C 857,546.4 901.8,478 929,428.9 c 10.3,-18.7 31.9,-52.5 14.9,-72.9 -6.1,-7.3 -14,-10.3 -22.4,-10.3 -19.5,0 -41.6,16.4 -48.9,32 -16.9,36.5 -36.4,71.4 -44.7,111.1 -16.5,-16.7 -63.3,-34.2 -101.1,-34.2 -29.3,0 -53.3,10.6 -53.3,40.5 0,19.6 10.4,25.8 23.8,25.8 15.5,0 35.2,-8.1 47.5,-12.8 h 2.4 c 68.8,0 153.8,129.4 107.6,188.8 -23.8,30.7 -86.7,45.9 -139.2,45.9 -22.2,0 -42.6,-2.7 -57.4,-8.2 -24.5,-8.9 -33.2,-36.3 -55.7,-49.9 -31.9,-19.2 -64.1,-27.6 -95.8,-27.6 -42.2,0 -83.7,14.7 -123.4,38.4 6.8,16 -4.4,46 14.8,53.4 29.8,-20 61.7,-29.1 91.4,-29.1 53.2,0 99.4,29 114.2,76.3 3.9,12.4 -31.2,15.5 -41.1,15.5 -0.8,0 -1.4,0 -1.8,0 -6.1,-0.5 -11.5,-1.3 -16.5,-1.3 -7.2,0 -13.8,1.5 -20.7,7.7 -19.7,17.5 -26,48.6 -35.6,71.8 -6.9,16.7 -12.9,33.7 -18.4,50.9 -5,15.5 -19.1,42.8 -17.3,58.7 -3.7,-32.2 -2.1,-64.1 0.7,-96.3 0.7,-8 5.8,-84.6 1.2,-84.8 -1.9,-0.1 -3.7,-0.1 -5.5,-0.1 -15.6,0 -30.8,1.9 -45.8,1.9 -16.7,0 -33.2,-2.4 -49.1,-12.4 -12.2,-7.7 -36.5,-33 -50.7,-33 -0.3,0 -0.6,0 -0.9,0 -11.9,1 -26.4,21.1 -37.6,26.6 -7.5,3.7 -15,5.7 -22.5,5.7 -7.7,0 -15.3,-2.2 -22.8,-6.8 -72.1,-44.8 -37.4,-139.9 27,-171.6 70.7,-34.8 171.6,5.3 222.8,-74.2 12.7,-19.6 -7.5,-66.7 -35,-66.7 -10.2,0 -21.6,4.9 -35,13.2 -16.9,10.3 -34.5,19.8 -52.5,28.4 -16.2,7.8 -38.1,20.1 -58,20.1 -3.6,0 -7.2,-0.4 -10.7,-1.4 -17.4,-4.7 -16.3,-47.9 -19,-61.4 -3.5,-17.5 -14,-69.8 -39.8,-69.8 -3,0 -6.3,0.7 -9.7,2.3 -23.2,10.5 -15.9,49.3 -11.4,67.8 5.8,23.9 22.7,47.6 18.3,73.2 -3.6,21 -21.6,36.8 -35.3,52.1 -12.2,13.5 -37.7,49.1 -56.9,49.1 -7.3,0 -13.6,-5.1 -18,-18.5 -7.4,-22.5 -11.6,-53.3 -6.1,-76.8 8.7,-37.8 29.3,-71.8 46.3,-106.3 4.1,-8.2 -8.7,-38.1 -10.9,-47.5 -2.9,-12.9 -5.8,-26 -7.1,-39.1 -2.9,-28.4 0.9,-57.6 19.8,-80.4 23.4,-28.5 63.9,-47.4 99,-58.3 24.9,-7.7 57.8,-13 91.5,-13 54.1,0 110,13.6 137.5,52.2 23.8,33.5 13.8,79.5 35.7,114.2 8.3,13.1 27.9,24.2 45,24.2 12.8,0 24.1,-6.3 27.8,-22.8 8.8,-38.8 -35.7,-82.9 -51.2,-116.6 -17.2,-37.4 12.6,-25 28.4,-50.9 8.6,-14.1 0.3,-33.3 -12.3,-42.5 -5.7,-4.2 -11.2,-5.8 -16.6,-5.8 -14.6,0 -28.3,11.8 -42.9,16.3 -9.6,3 -19.8,4.3 -30,4.3 -5.4,0 -10.7,-0.3 -16.1,-1 -21.6,-2.7 -49.9,-8.3 -67.3,-22 -4.6,-3.7 -7.6,-7.2 -9.2,-10.7 -15.2,-33.1 91.6,-60 115.1,-63.9 5.1,-0.8 9.9,-1.2 14.5,-1.2 42.3,0 70.8,32 99.5,60.1 15.2,14.9 36.2,40.8 55.5,48.8 10.9,-15.9 18.2,-34.3 29.1,-50.4 22,-32 55.4,-57 95.2,-57 4.5,0 9.2,0.3 13.8,1 81.3,11.5 74.9,104.6 121.1,152.3 8.1,8.4 14.8,11.6 21.4,11.6 8,0 16,-4.7 26.6,-10.5 6.8,-3.7 13.8,-5.3 20.6,-5.3 31,0 60.3,33.6 74.7,56.7 21,33.5 28.6,75.4 25.9,114.4 -0.8,11.8 -2.7,23.8 -5.9,35.1 -8.8,30.7 28.8,42.3 30.6,73.6 2,36.4 -46.5,61.2 -75.8,71.9 M 1175,446.2 c 1.1,-7.3 1.9,-14.9 2.5,-22.6 4.4,-61.9 -9.8,-122.4 -39.9,-170.5 -19.3,-30.7 -73.1,-102.2 -157.8,-102.2 -4.8,0 -9.5,0.3 -14.2,0.7 -0.3,-0.8 -0.7,-1.6 -1,-2.4 C 945.8,103.7 910.6,18.9 804.3,3.7 795,2.4 785.6,1.7 776.3,1.7 724.5,1.7 675.2,22.3 635.6,59.4 603.6,30.5 559.6,0.1 497,0.1 c -10.1,0 -20.4,0.9 -30.7,2.6 -33.6,5.6 -146.1,29 -184,98.3 -5.3,9.8 -9.1,20.1 -11.3,30.5 -18.8,2.9 -36.8,7 -53.5,12.2 -44,13.6 -104.8,40.2 -145.2,89.2 -22.8,27.6 -48.3,75.9 -40.8,149.2 1.9,19 5.8,36.3 8.9,50.1 0.9,3.7 2.2,8.5 4.1,14.1 -14.9,28.5 -30.7,60.8 -39.5,98.8 -12.4,53.5 1.8,106.3 8.4,126.5 14.3,43.4 43,67.3 72.7,77.8 10.4,58.7 38.4,104.2 81.1,130.7 22.8,14.1 48.8,21.6 75,21.6 20.7,0 41.1,-4.5 60.9,-13.4 16,9.8 33.2,16.8 51.8,21.1 -2.3,31 -3.4,64.5 0.7,100.3 5.7,48.4 47.8,84.2 96.6,84.2 3.7,0 7.3,-0.2 11.1,-0.6 48.5,-5.4 84.6,-44.5 86.3,-90.6 1.3,-3.8 3.5,-9.1 4.9,-12.7 3.2,-7.8 6,-15.1 8,-21.1 5.6,-17.3 10.5,-31.2 15.8,-43.8 2.6,-6.3 5.1,-13.1 7.6,-20.1 30.6,-3.2 70.2,-14.3 95.2,-47.3 5.1,-6.7 9.2,-13.7 12.4,-21 7.3,0.4 14.7,0.6 22.3,0.6 73.5,0 169,-21.9 216.8,-83.5 12.1,-15.5 20.8,-33 26.2,-51.7 4.6,0.3 9.4,0.4 14.1,0.4 38.1,0 70.3,-8.8 90.6,-16.2 90.9,-33.1 142.8,-95.1 138.8,-165.9 -1.9,-33.1 -15.7,-57.9 -27.3,-74.2" />
      </g>
      <g
         id="Group-5"
         transform="rotate(-40,464.2436,302.34202)">
        <ellipse
           id="Oval-2"
           transform="rotate(179.99989,368.36285,451.61432)"
           cx="368.39999"
           cy="451.60001"
           rx="367.60001"
           ry="142" />
        <polygon
           id="Rectangle-5"
           points="628.7,433.2 127.9,433.2 100.1,83.1 656.5,83.1 " />
        <ellipse
           id="Oval-2-Copy-3"
           transform="rotate(179.99989,332.50041,93.290328)"
           class="st3"
           cx="332.5"
           cy="93.300003"
           rx="287.89999"
           ry="92.5" />
        <ellipse
           id="Oval-2-Copy-2"
           transform="rotate(179.99989,378.29822,83.112072)"
           cx="378.29999"
           cy="83.099998"
           rx="278.20001"
           ry="82.400002" />
      </g>
    </g>
    <path
       d="m 314.12733,161.13914 v -43.6044 H 328.177 c 3.85106,0 7.32149,0.87321 10.38891,2.61962 3.07861,1.74641 5.47433,4.20931 7.19836,7.39987 1.72402,3.19056 2.59722,6.75058 2.61961,10.70242 v 2.00389 c 0,3.99661 -0.83961,7.56781 -2.53005,10.73597 -1.69044,3.16818 -4.06377,5.64227 -7.1312,7.42226 -3.06741,1.79119 -6.48186,2.68679 -10.25457,2.70918 h -14.34073 z m 10.51206,-35.48806 v 27.4053 h 3.64955 c 3.01145,0 5.3288,-1.07471 6.95207,-3.22414 1.61207,-2.14943 2.42931,-5.33999 2.42931,-9.5717 v -1.89194 c 0,-4.20932 -0.80604,-7.38871 -2.42931,-9.52696 -1.61208,-2.13823 -3.97421,-3.20175 -7.06401,-3.20175 h -3.53761 z m 53.90369,27.33814 h -14.4079 l -2.51886,8.14992 h -11.22854 l 15.98639,-43.6044 h 9.88514 l 16.12073,43.6044 h -11.29571 z m -11.88904,-8.11635 h 9.37018 l -4.70188,-15.12444 z m 65.31135,16.26627 h -10.45608 l -15.44904,-27.1366 v 27.1366 h -10.51206 v -43.6044 h 10.51206 l 15.42664,27.13663 v -27.13663 h 10.47848 z m 6.6498,0 v -43.6044 h 14.04967 c 3.85106,0 7.32149,0.87321 10.38891,2.61962 3.06742,1.74641 5.47433,4.20931 7.19835,7.39987 1.72403,3.17937 2.59724,6.75058 2.61962,10.70242 v 2.00389 c 0,3.99661 -0.83962,7.56781 -2.53006,10.73597 -1.69044,3.16818 -4.06376,5.64227 -7.13118,7.42226 -3.06742,1.79119 -6.48188,2.68679 -10.25458,2.70918 h -14.34073 z m 10.51206,-35.48806 v 27.4053 h 3.64955 c 3.01145,0 5.3288,-1.07471 6.95207,-3.22414 1.62326,-2.14943 2.4293,-5.33999 2.4293,-9.5717 v -1.89194 c 0,-4.20932 -0.80604,-7.38871 -2.4293,-9.52696 -1.62327,-2.13823 -3.9742,-3.19056 -7.07521,-3.19056 z m 40.33541,35.48806 h -10.47847 v -43.6044 h 10.47847 z"
       class="st4"
       id="path4212"
       inkscape:connector-curvature="0"
       style="stroke:none;fill:#ffffff;filter:url(#filter4214)" />
    <path
       d="m 314.12733,161.13914 v -43.6044 H 328.177 c 3.85106,0 7.32149,0.87321 10.38891,2.61962 3.07861,1.74641 5.47433,4.20931 7.19836,7.39987 1.72402,3.19056 2.59722,6.75058 2.61961,10.70242 v 2.00389 c 0,3.99661 -0.83961,7.56781 -2.53005,10.73597 -1.69044,3.16818 -4.06377,5.64227 -7.1312,7.42226 -3.06741,1.79119 -6.48186,2.68679 -10.25457,2.70918 h -14.34073 z m 10.51206,-35.48806 v 27.4053 h 3.64955 c 3.01145,0 5.3288,-1.07471 6.95207,-3.22414 1.61207,-2.14943 2.42931,-5.33999 2.42931,-9.5717 v -1.89194 c 0,-4.20932 -0.80604,-7.38871 -2.42931,-9.52696 -1.61208,-2.13823 -3.97421,-3.20175 -7.06401,-3.20175 h -3.53761 z m 53.90369,27.33814 h -14.4079 l -2.51886,8.14992 h -11.22854 l 15.98639,-43.6044 h 9.88514 l 16.12073,43.6044 h -11.29571 z m -11.88904,-8.11635 h 9.37018 l -4.70188,-15.12444 z m 65.31135,16.26627 h -10.45608 l -15.44904,-27.1366 v 27.1366 h -10.51206 v -43.6044 h 10.51206 l 15.42664,27.13663 v -27.13663 h 10.47848 z m 6.6498,0 v -43.6044 h 14.04967 c 3.85106,0 7.32149,0.87321 10.38891,2.61962 3.06742,1.74641 5.47433,4.20931 7.19835,7.39987 1.72403,3.17937 2.59724,6.75058 2.61962,10.70242 v 2.00389 c 0,3.99661 -0.83962,7.56781 -2.53006,10.73597 -1.69044,3.16818 -4.06376,5.64227 -7.13118,7.42226 -3.06742,1.79119 -6.48188,2.68679 -10.25458,2.70918 h -14.34073 z m 10.51206,-35.48806 v 27.4053 h 3.64955 c 3.01145,0 5.3288,-1.07471 6.95207,-3.22414 1.62326,-2.14943 2.4293,-5.33999 2.4293,-9.5717 v -1.89194 c 0,-4.20932 -0.80604,-7.38871 -2.4293,-9.52696 -1.62327,-2.13823 -3.9742,-3.19056 -7.07521,-3.19056 z m 40.33541,35.48806 h -10.47847 v -43.6044 h 10.47847 z"
       class="st4"
       id="DANDI"
       inkscape:connector-curvature="0"
       style="stroke:none" />
    <text
       xml:space="preserve"
       id="text80"
       style="font-style:normal;font-weight:normal;font-size:131.106px;line-height:1.25;font-family:sans-serif;white-space:pre;shape-inside:url(#rect82);display:inline;fill:#000000;fill-opacity:1;stroke:none"
       transform="matrix(0.11301258,0,0,0.11301258,71.550259,16.572361)"><tspan
         x="2133.6699"
         y="1402.3912"
         id="tspan1210"><tspan
           dx="0 0 0 0 0 0 0 0 0 0 0 0 0 0 0 0 0 0 0 0 0 0 -0.00011444092"
           id="tspan1208">https://dandiarchive.org</tspan></tspan></text>
    <path
       d="m 314.12733,161.13914 v -43.6044 H 328.177 c 3.85106,0 7.32149,0.87321 10.38891,2.61962 3.07861,1.74641 5.47433,4.20931 7.19836,7.39987 1.72402,3.19056 2.59722,6.75058 2.61961,10.70242 v 2.00389 c 0,3.99661 -0.83961,7.56781 -2.53005,10.73597 -1.69044,3.16818 -4.06377,5.64227 -7.1312,7.42226 -3.06741,1.79119 -6.48186,2.68679 -10.25457,2.70918 h -14.34073 z m 10.51206,-35.48806 v 27.4053 h 3.64955 c 3.01145,0 5.3288,-1.07471 6.95207,-3.22414 1.61207,-2.14943 2.42931,-5.33999 2.42931,-9.5717 v -1.89194 c 0,-4.20932 -0.80604,-7.38871 -2.42931,-9.52696 -1.61208,-2.13823 -3.97421,-3.20175 -7.06401,-3.20175 h -3.53761 z m 53.90369,27.33814 h -14.4079 l -2.51886,8.14992 h -11.22854 l 15.98639,-43.6044 h 9.88514 l 16.12073,43.6044 h -11.29571 z m -11.88904,-8.11635 h 9.37018 l -4.70188,-15.12444 z m 65.31135,16.26627 h -10.45608 l -15.44904,-27.1366 v 27.1366 h -10.51206 v -43.6044 h 10.51206 l 15.42664,27.13663 v -27.13663 h 10.47848 z m 6.6498,0 v -43.6044 h 14.04967 c 3.85106,0 7.32149,0.87321 10.38891,2.61962 3.06742,1.74641 5.47433,4.20931 7.19835,7.39987 1.72403,3.17937 2.59724,6.75058 2.61962,10.70242 v 2.00389 c 0,3.99661 -0.83962,7.56781 -2.53006,10.73597 -1.69044,3.16818 -4.06376,5.64227 -7.13118,7.42226 -3.06742,1.79119 -6.48188,2.68679 -10.25458,2.70918 h -14.34073 z m 10.51206,-35.48806 v 27.4053 h 3.64955 c 3.01145,0 5.3288,-1.07471 6.95207,-3.22414 1.62326,-2.14943 2.4293,-5.33999 2.4293,-9.5717 v -1.89194 c 0,-4.20932 -0.80604,-7.38871 -2.4293,-9.52696 -1.62327,-2.13823 -3.9742,-3.19056 -7.07521,-3.19056 z m 40.33541,35.48806 h -10.47847 v -43.6044 h 10.47847 z"
       class="st4"
       id="path4226"
       inkscape:connector-curvature="0"
       style="stroke:none" />
  </g>
  <style
     type="text/css"
     id="style10">
	.st0{fill:#D3868D;}
	.st1{fill:#F0A5AC;}
	.st2{fill:#A05A60;}
	.st3{fill:#FFFFFF;}
	.st4{fill:#00436D;}
</style>
</svg>
