<?xml version="1.0" encoding="UTF-8" standalone="no"?>
<!-- Created with Inkscape (http://www.inkscape.org/) -->

<svg
   version="1.1"
   id="svg2"
   width="816"
   height="574.48822"
   viewBox="0 0 816 574.48822"
   sodipodi:docname="nwb-logo.svg"
   inkscape:version="1.2.2 (b0a8486541, 2022-12-01)"
   xmlns:inkscape="http://www.inkscape.org/namespaces/inkscape"
   xmlns:sodipodi="http://sodipodi.sourceforge.net/DTD/sodipodi-0.dtd"
   xmlns="http://www.w3.org/2000/svg"
   xmlns:svg="http://www.w3.org/2000/svg">
  <defs
     id="defs6" />
  <sodipodi:namedview
     id="namedview4"
     pagecolor="#ffffff"
     bordercolor="#666666"
     borderopacity="1.0"
     inkscape:showpageshadow="2"
     inkscape:pageopacity="0.0"
     inkscape:pagecheckerboard="0"
     inkscape:deskcolor="#d1d1d1"
     showgrid="false"
     inkscape:zoom="0.41080042"
     inkscape:cx="48.685442"
     inkscape:cy="288.46125"
     inkscape:current-layer="g10">
    <inkscape:page
       x="0"
       y="0"
       id="page8"
       width="816"
       height="574.48822" />
  </sodipodi:namedview>
  <g
     id="g10"
     inkscape:groupmode="layer"
     inkscape:label="Page 1"
     transform="matrix(1.3333333,0,0,1.3333333,0,1.4362205e-5)">
    <g
       inkscape:groupmode="layer"
       id="layer1"
       inkscape:label="green-bg"
       style="display:none">
      <path
         d="M 6.4750004e-6,-4.3772469e-4 H 612.00001 V 430.86659 H 6.4750003e-6 Z"
         style="fill:#00aa00;fill-opacity:1;fill-rule:nonzero;stroke:none"
         id="path14" />
    </g>
    <g
       inkscape:groupmode="layer"
       id="g1126"
       inkscape:label="white-bg"
       style="display:none">
      <path
         d="M 6.4750004e-6,-4.3772469e-4 H 612.00001 V 430.86659 H 6.4750003e-6 Z"
         style="fill:#ffffff;fill-opacity:1;fill-rule:nonzero;stroke:none"
         id="path1124" />
    </g>
    <g
       id="g1172">
      <path
         d="m 309.293,143.559 16.113,9.304 v 18.606 l -8.054,4.656 -8.059,4.648 -8.059,-4.648 -8.058,-4.656 v -18.606 l 16.117,-9.304"
         style="fill:#8f8f8f;fill-opacity:1;fill-rule:evenodd;stroke:none"
         id="path16" />
      <path
         d="m 296.27,206.727 6.808,3.925 6.805,3.93 v 15.719 l -6.805,3.929 -6.808,3.926 -6.805,-3.926 -6.805,-3.929 v -15.719 l 2.219,-1.281 0.168,-0.098 11.223,-6.476"
         style="fill:#8f8f8f;fill-opacity:1;fill-rule:evenodd;stroke:none"
         id="path18" />
      <path
         d="m 224.598,266.336 11.058,6.383 v 12.773 l -5.527,3.192 -5.531,3.191 -5.532,-3.191 -5.527,-3.192 v -12.773 l 11.059,-6.383"
         style="fill:#d17128;fill-opacity:1;fill-rule:evenodd;stroke:none"
         id="path20" />
      <path
         d="m 383.113,200.574 11.063,6.383 v 12.77 l -5.531,3.195 -5.532,3.191 -5.527,-3.191 -5.531,-3.195 v -12.77 l 11.058,-6.383"
         style="fill:#8f8f8f;fill-opacity:1;fill-rule:evenodd;stroke:none"
         id="path22" />
      <path
         d="m 198.676,187.289 16.113,9.305 v 18.609 l -16.113,9.309 -16.117,-9.309 v -18.609 l 16.117,-9.305"
         style="fill:#d17128;fill-opacity:1;fill-rule:evenodd;stroke:none"
         id="path24" />
      <path
         d="m 351.688,197.266 11.058,6.382 v 12.77 l -5.531,3.195 -5.527,3.192 -11.063,-6.387 v -12.77 l 11.063,-6.382"
         style="fill:#d17128;fill-opacity:1;fill-rule:evenodd;stroke:none"
         id="path26" />
      <path
         d="m 417.852,102.977 11.062,6.386 v 12.77 l -11.062,6.383 -11.059,-6.383 v -12.77 l 11.059,-6.386"
         style="fill:#d17128;fill-opacity:1;fill-rule:evenodd;stroke:none"
         id="path28" />
      <path
         d="m 421.16,184.809 16.117,9.304 v 18.61 l -16.117,9.304 -16.117,-9.304 v -18.61 l 16.117,-9.304"
         style="fill:#d17128;fill-opacity:1;fill-rule:evenodd;stroke:none"
         id="path30" />
      <path
         d="m 253.262,108.719 16.117,9.304 v 18.606 l -8.059,4.656 -8.058,4.649 -8.059,-4.649 -8.058,-4.656 v -18.606 l 16.117,-9.304"
         style="fill:#d17128;fill-opacity:1;fill-rule:evenodd;stroke:none"
         id="path32" />
      <path
         d="m 266.441,2.438 16.114,9.304 v 18.606 l -8.055,4.656 -8.059,4.652 -8.058,-4.652 -8.059,-4.656 V 11.742 l 16.117,-9.304"
         style="fill:#8f8f8f;fill-opacity:1;fill-rule:evenodd;stroke:none"
         id="path34" />
      <path
         d="m 151.531,167.906 11.059,6.387 v 12.766 l -5.527,3.195 -5.532,3.191 -5.531,-3.191 -5.527,-3.195 v -12.766 l 11.058,-6.387"
         style="fill:#8f8f8f;fill-opacity:1;fill-rule:evenodd;stroke:none"
         id="path36" />
      <path
         d="m 144.918,114.922 13.609,7.855 v 15.719 l -6.808,3.93 -6.801,3.926 -6.809,-3.926 -6.804,-3.93 v -15.719 l 13.613,-7.855"
         style="fill:#d17128;fill-opacity:1;fill-rule:evenodd;stroke:none"
         id="path38" />
      <path
         d="m 163.242,71.5 9.672,5.582 9.668,5.582 v 22.332 l -9.668,5.582 -9.672,5.586 -19.34,-11.168 V 82.664 L 163.242,71.5"
         style="fill:#8f8f8f;fill-opacity:1;fill-rule:evenodd;stroke:none"
         id="path40" />
      <path
         d="m 385.125,72.125 5.531,3.191 5.528,3.196 v 12.769 l -5.528,3.192 -5.531,3.191 -5.527,-3.191 -5.532,-3.192 V 78.512 l 5.532,-3.196 5.527,-3.191"
         style="fill:#d17128;fill-opacity:1;fill-rule:evenodd;stroke:none"
         id="path42" />
      <path
         d="m 334.465,0.168 11.062,6.387 v 12.769 l -11.062,6.383 -11.059,-6.383 V 6.555 l 11.059,-6.387"
         style="fill:#d17128;fill-opacity:1;fill-rule:evenodd;stroke:none"
         id="path44" />
      <path
         d="m 390.777,32.117 6.805,3.926 6.805,3.93 v 15.715 l -13.61,7.859 -13.609,-7.859 V 39.973 l 6.805,-3.93 6.804,-3.926"
         style="fill:#8f8f8f;fill-opacity:1;fill-rule:evenodd;stroke:none"
         id="path46" />
      <path
         d="m 430.273,50.723 13.61,7.859 v 15.715 l -13.61,7.859 -6.808,-3.929 -6.805,-3.93 V 58.582 l 6.805,-3.93 6.808,-3.929"
         style="fill:#d17128;fill-opacity:1;fill-rule:evenodd;stroke:none"
         id="path48" />
      <path
         d="m 454.465,80.914 13.609,7.856 v 15.714 l -6.804,3.934 -6.805,3.926 -6.809,-3.926 -6.801,-3.934 V 88.77 l 13.61,-7.856"
         style="fill:#8f8f8f;fill-opacity:1;fill-rule:evenodd;stroke:none"
         id="path50" />
      <path
         d="m 247.75,68.008 36.695,6.234 V 67.73 l 28.383,-16.386 28.383,16.386 v 32.774 l -3.816,2.203 23.468,30.711 18.957,-10.945 28.383,16.386 v 11.383 l 29.875,-0.367 v -9.93 l 21.309,-12.304 21.308,12.304 v 24.61 l -21.308,12.3 -21.309,-12.3 v -9.407 l -29.875,0.368 v 16.117 L 379.82,188.02 351.438,171.633 v -32.774 l 4.816,-2.777 -23.473,-30.711 -19.953,11.52 -7.105,-4.102 -33.907,58.727 1.168,0.675 v 24.387 l -1.101,0.641 -0.317,0.179 -9.136,5.278 -10.563,6.097 -0.726,-0.418 -2.293,18.028 3.375,1.953 8.058,4.648 v 18.614 l -16.117,9.304 -16.117,-9.304 v -18.614 l 15.805,-9.121 2.336,-18.367 -4.883,-2.82 -10.559,-6.098 v -24.387 l 0.664,-0.382 -19.316,-12.723 -6.735,3.891 -10.562,6.097 -10.563,-6.097 -10.558,-6.098 v -24.387 l 10.558,-6.097 10.563,-6.098 10.562,6.098 10.559,6.097 v 22.805 l 20.598,13.562 4.789,-2.765 10.562,-6.098 10.563,6.098 4.824,2.785 33.906,-58.723 -16.715,-9.652 V 79.602 L 247.75,73.367 v 9.356 L 219.363,99.109 190.984,82.723 V 49.949 l 28.379,-16.386 28.387,16.386 v 18.059"
         style="fill:#114b7c;fill-opacity:1;fill-rule:evenodd;stroke:none"
         id="path52" />
      <path
         d="m 75.254,348.652 c 0.027,10.75 -0.055,21.504 0.043,32.254 0.207,4.258 2.543,8.918 6.996,9.969 5.379,1.418 10.992,0.77 16.488,0.922 10.821,0 21.641,0 32.457,0 0,-3.254 0,-6.508 0,-9.762 -14.086,-0.008 -28.172,0.02 -42.258,-0.012 -2.281,0.071 -3.242,-2.332 -2.941,-4.269 0,-2.938 0,-5.879 0,-8.816 14.125,0 28.25,0 42.375,0 0,-3.168 0,-6.333 0,-9.5 -14.125,0 -28.25,0 -42.375,0 0.07,-3.625 -0.144,-7.274 0.121,-10.883 0.43,-2.278 2.957,-2.313 4.789,-2.219 13.43,0 26.86,0 40.289,0 0,-3.25 0,-6.504 0,-9.754 -14.554,0.023 -29.109,-0.051 -43.664,0.035 -4.469,0.106 -9.625,1.77 -11.34,6.328 -0.742,1.805 -0.98,3.774 -0.98,5.707 z"
         style="fill:#114b7c;fill-opacity:1;fill-rule:evenodd;stroke:none"
         id="path54" />
      <path
         d="m 391.902,382.035 h -20.8 V 346.34 c 8,0.039 16,-0.078 23.996,0.062 4.734,0.414 10.422,1.555 12.847,6.157 2.383,4.898 1.985,10.574 1.774,15.863 -0.274,4.578 -1.989,9.758 -6.508,11.746 -3.512,1.648 -7.496,1.832 -11.309,1.867 z m -31.328,8.988 c -0.004,0.93 1.887,0.684 3.223,0.774 10.086,-0.07 20.172,0.172 30.25,-0.211 7.183,-0.481 15.133,-1.41 20.574,-6.629 5.449,-5.391 6.317,-13.582 6.305,-20.859 -0.094,-7.055 -0.821,-14.93 -5.926,-20.301 -5.312,-5.25 -13.152,-6.488 -20.293,-7.035 -8.445,-0.348 -16.902,-0.114 -25.352,-0.18 h -8.781 z"
         style="fill:#8f8f8f;fill-opacity:1;fill-rule:evenodd;stroke:none"
         id="path56" />
      <path
         d="m 0.008,344.797 c 0.023,15.531 -0.051,31.07 0.035,46.598 0.445,0.421 1.238,0.39 3.379,0.402 h 7.113 c 0.02,-13.238 -0.035,-26.473 0.031,-39.707 0.036,-3.102 2.68,-1.801 3.801,-0.305 6.551,7.785 13.192,16.188 19.465,24.192 4.094,4.945 8,10.132 12.832,14.39 2.926,1.977 6.856,1.676 10.098,0.727 3.511,-1.063 4.941,-4.973 4.625,-8.344 V 336.582 H 51.371 c -0.953,0.887 -0.742,2.77 -0.769,5.777 -0.008,11.77 0.031,23.543 -0.004,35.313 -2.43,1.758 -4.34,-2.641 -6.043,-4.02 -8.93,-10.55 -17.078,-21.754 -26.149,-32.191 -1.968,-2.473 -4.601,-4.68 -7.906,-4.848 -4.051,-0.672 -9.172,0.992 -10.16,5.442 -0.238,0.894 -0.332,1.82 -0.332,2.742 z"
         style="fill:#114b7c;fill-opacity:1;fill-rule:evenodd;stroke:none"
         id="path58" />
      <path
         d="m 295.344,365.859 c -0.078,-6.007 -0.039,-13.152 4.886,-17.41 6.536,-4.402 14.629,-3.629 22.165,-3.41 5.488,0.156 11.906,2.496 13.835,8.188 2.254,5.894 1.559,12.39 1.125,18.535 -0.746,5.543 -5.277,9.992 -10.82,10.644 -6.254,1.172 -12.68,0.649 -18.988,0.457 -5.817,-0.574 -10.762,-5.121 -11.621,-10.925 -0.434,-1.993 -0.571,-4.043 -0.582,-6.079 z m -11.043,-3.597 c -0.481,9.496 1.738,20.668 10.476,25.98 8.825,5.317 19.575,4.461 29.45,4.207 8.691,-0.379 17.968,-4.398 21.648,-12.773 3.625,-7.805 3.547,-16.86 2.023,-25.168 -1.597,-8.375 -8.136,-15.477 -16.472,-17.457 -6.867,-1.93 -14.426,-0.992 -21.242,-1.149 -8.817,-0.203 -18.125,3.555 -22.403,11.641 -2.336,4.516 -3.484,9.645 -3.48,14.719 z"
         style="fill:#114b7c;fill-opacity:1;fill-rule:evenodd;stroke:none"
         id="path60" />
      <path
         d="m 142.797,366.629 c -0.102,7.484 1.805,15.637 7.75,20.672 5.594,4.922 13.441,5.066 20.476,5.57 6.508,0.231 13.106,-0.621 19.165,-3.078 6.996,-2.715 10.699,-10.121 11.613,-17.199 0.578,-5.301 0.219,-10.649 0.32,-15.973 0,-6.68 0,-13.359 0,-20.039 -3.512,0 -7.019,0 -10.531,0 -0.004,11.766 0.523,23.566 -0.512,35.305 -0.351,3.894 -2.238,8.047 -6.121,9.511 -5.801,2.231 -12.211,1.903 -18.301,1.504 -4.511,-0.273 -9.648,-1.894 -11.59,-6.386 -2.16,-4.973 -1.449,-10.555 -1.761,-15.828 -0.114,-8.036 0.015,-16.071 0.019,-24.106 -3.508,0 -7.019,0 -10.527,0 0,10.016 0,20.031 0,30.047"
         style="fill:#114b7c;fill-opacity:1;fill-rule:evenodd;stroke:none"
         id="path62" />
      <path
         d="m 11.82,430.059 c 2.313,0.007 4.2,0.269 5.27,-1.539 1.172,-2.52 1.547,-5.325 2.433,-7.95 0.95,-3.23 1.551,-5.793 2.438,-9.043 0.258,-0.941 0.906,-0.925 1.176,0.028 1.414,5.086 2.75,10.461 4.164,15.547 0.375,1.507 1.621,2.976 3.23,2.968 1.61,-0.011 3.586,0.153 4.586,-0.562 1.629,-1.164 1.793,-3.317 2.453,-5.059 1.793,-6.199 3.692,-12.57 5.567,-18.742 l -4.864,0.016 c -1.085,3.105 -2.023,6.55 -3,9.738 -0.968,3.168 -1.707,6.414 -2.8,9.539 -0.5,1.422 -1.325,-0.855 -1.887,-2.59 -0.754,-2.336 -2.34,-9.191 -3.789,-13.707 -1.508,-3.656 -7.77,-3.359 -8.781,0.527 -1.36,4.786 -2.762,9.567 -3.977,14.395 -0.258,1.027 -0.945,3.059 -1.605,1.078 -1.68,-5.926 -3.493,-11.816 -5.219,-17.73 -0.563,-1.535 -2.789,-1.274 -4.375,-1.227 -1.402,0.035 -0.235,2.496 0.047,3.457 1.758,5.961 3.574,12.035 5.449,18.027 1.035,2.016 1.664,2.68 3.484,2.829 z"
         style="fill:#d17128;fill-opacity:1;fill-rule:evenodd;stroke:none"
         id="path64" />
      <path
         d="m 341.055,425.695 h -13.867 v -5.394 h 13.867 c 3.258,0 3.015,5.394 0,5.394 z m -2.309,-9.761 h -11.558 v -5.649 h 11.816 c 2.84,0 2.824,1.735 2.824,3.34 0,1.629 -1.469,2.309 -3.082,2.309 z m -16.18,14.125 h 18.489 c 3.664,0 7.191,-2.559 7.191,-6.161 0,-2.753 -0.484,-5.636 -3.851,-6.421 1.07,-0.93 1.832,-1.641 2.253,-3.145 1.227,-4.375 -1.832,-8.41 -7.644,-8.41 h -16.438 v 24.137"
         style="fill:#d17128;fill-opacity:1;fill-rule:evenodd;stroke:none"
         id="path66" />
      <path
         d="m 582.461,413.109 c -0.102,2.25 0.992,4.614 3.105,5.579 3.239,1.519 6.934,1.195 10.407,1.128 2.449,-0.019 5.007,-0.375 7.363,0.454 1.699,0.511 1.93,2.921 0.641,3.98 -2.309,1.938 -5.5,1.977 -8.36,2.004 -2.332,-0.113 -5.308,-0.621 -6.875,-1.477 -1.57,-0.851 -1.242,-2.16 -2.695,-2.164 h -3.844 c 0.172,3.008 2.602,5.328 5.254,6.41 4.453,1.868 9.492,1.895 14.168,0.942 3.098,-0.688 6.434,-2.289 7.691,-5.402 1.332,-3.129 -0.5,-7.043 -3.683,-8.153 -3.91,-1.367 -8.133,-0.98 -12.207,-0.988 -1.821,-0.07 -3.828,0.348 -5.485,-0.594 -1.14,-0.867 -0.496,-2.66 0.508,-3.371 2.211,-1.574 5.071,-1.707 7.696,-1.672 2.203,0.145 4.605,0.305 6.418,1.692 1.492,1.074 1.792,1.378 3.265,1.375 1.469,0 1.481,0.003 2.805,0.019 -0.52,-2.508 -2.82,-4.473 -4.953,-5.605 -3.535,-1.801 -7.66,-2.051 -11.539,-1.621 -3.469,0.437 -7.235,1.796 -9.039,5.003 -0.407,0.754 -0.645,1.602 -0.641,2.461"
         style="fill:#d17128;fill-opacity:1;fill-rule:evenodd;stroke:none"
         id="path68" />
      <path
         d="m 124.305,430.059 h 4.879 v -9.758 h 16.179 v 9.758 h 4.879 v -24.137 h -4.879 v 10.012 h -16.179 v -10.012 h -4.879 v 24.137"
         style="fill:#d17128;fill-opacity:1;fill-rule:evenodd;stroke:none"
         id="path70" />
      <path
         d="m 80.645,410.285 h 11.043 v 19.774 h 4.882 v -19.774 h 11.043 v -4.363 H 80.645 v 4.363"
         style="fill:#d17128;fill-opacity:1;fill-rule:evenodd;stroke:none"
         id="path72" />
      <path
         d="m 255.793,410.285 h 11.043 v 19.774 h 4.879 v -19.774 h 11.043 v -4.363 h -26.965 v 4.363"
         style="fill:#d17128;fill-opacity:1;fill-rule:evenodd;stroke:none"
         id="path74" />
      <path
         d="m 59.332,405.922 h 4.621 v 24.137 h -4.621 z"
         style="fill:#d17128;fill-opacity:1;fill-rule:nonzero;stroke:none"
         id="path76" />
      <path
         d="m 487.512,346.547 h 25.211 v 45.148 h 11.14 v -45.148 h 25.211 v -9.965 h -61.562 v 9.965"
         style="fill:#8f8f8f;fill-opacity:1;fill-rule:evenodd;stroke:none"
         id="path78" />
      <path
         d="m 472.543,371.508 h -26.449 c 0,0 7.633,-16.375 11.312,-24.207 0.5,-1.059 3.157,-1.012 3.637,-0.024 3.824,7.879 11.523,24.27 11.5,24.227 z m -30.262,9.816 c 11.61,-0.168 23.09,-0.312 34.625,-0.312 0,0 3.383,7.218 5.207,10.812 3.703,-0.004 7.535,-0.008 11.239,-0.019 -7.567,-16.903 -15.555,-34.16 -23.766,-51.051 -2.145,-3.996 -7.246,-4.219 -11.242,-4.211 -3.926,0.012 -8.375,1.5 -10.008,5.398 -2.731,5.301 -4.945,10.848 -7.609,16.184 -5.25,11.23 -15.801,33.672 -15.801,33.672 l 11.465,0.027 c 1.996,-3.562 3.988,-7.179 5.89,-10.5 z"
         style="fill:#8f8f8f;fill-opacity:1;fill-rule:evenodd;stroke:none"
         id="path80" />
      <path
         d="m 591.191,371.508 h -26.449 c 0,0 7.633,-16.379 11.317,-24.207 0.496,-1.063 3.152,-1.012 3.632,-0.024 3.825,7.879 11.528,24.266 11.5,24.227 z m -30.261,9.816 c 11.609,-0.168 23.09,-0.316 34.629,-0.316 0,0 3.382,7.219 5.203,10.812 3.703,0 7.535,-0.004 11.238,-0.019 -7.566,-16.899 -15.555,-34.16 -23.766,-51.047 -2.14,-3.996 -7.242,-4.223 -11.242,-4.211 -3.926,0.012 -8.375,1.5 -10.008,5.398 -2.73,5.301 -4.945,10.848 -7.609,16.18 -5.25,11.234 -15.801,33.676 -15.801,33.676 l 11.465,0.027 c 1.996,-3.562 3.992,-7.179 5.891,-10.5 z"
         style="fill:#8f8f8f;fill-opacity:1;fill-rule:evenodd;stroke:none"
         id="path82" />
      <path
         d="m 172.313,418.805 c -0.036,-2.645 -0.016,-5.793 2.156,-7.668 2.875,-1.942 6.441,-1.598 9.761,-1.504 2.418,0.07 5.247,1.101 6.094,3.609 0.996,2.594 0.688,5.457 0.496,8.164 -0.328,2.442 -2.324,4.403 -4.765,4.688 -2.754,0.515 -5.586,0.285 -8.364,0.203 -2.562,-0.254 -4.742,-2.258 -5.121,-4.813 -0.191,-0.879 -0.25,-1.781 -0.257,-2.679 z m -4.864,-1.582 c -0.211,4.183 0.766,9.101 4.614,11.441 3.89,2.344 8.625,1.965 12.972,1.856 3.832,-0.168 7.918,-1.938 9.539,-5.629 1.598,-3.438 1.563,-7.426 0.891,-11.086 -0.703,-3.692 -3.586,-6.817 -7.254,-7.688 -3.027,-0.851 -6.356,-0.441 -9.359,-0.508 -3.887,-0.089 -7.985,1.563 -9.868,5.129 -1.031,1.989 -1.535,4.246 -1.535,6.481 z"
         style="fill:#d17128;fill-opacity:1;fill-rule:evenodd;stroke:none"
         id="path84" />
      <path
         d="m 369.547,419.059 c -0.031,-2.645 -0.02,-5.793 2.152,-7.668 2.879,-1.938 6.446,-1.598 9.766,-1.504 2.418,0.07 5.246,1.101 6.094,3.609 0.992,2.598 0.687,5.457 0.496,8.164 -0.328,2.442 -2.325,4.403 -4.766,4.692 -2.754,0.515 -5.586,0.285 -8.367,0.199 -2.559,-0.254 -4.738,-2.258 -5.117,-4.813 -0.192,-0.879 -0.254,-1.781 -0.258,-2.679 z m -4.863,-1.582 c -0.211,4.183 0.765,9.105 4.613,11.445 3.887,2.34 8.625,1.965 12.973,1.851 3.832,-0.164 7.918,-1.937 9.539,-5.625 1.597,-3.437 1.562,-7.429 0.89,-11.085 -0.703,-3.692 -3.586,-6.821 -7.254,-7.692 -3.027,-0.851 -6.355,-0.437 -9.359,-0.508 -3.887,-0.09 -7.984,1.567 -9.871,5.129 -1.027,1.988 -1.535,4.246 -1.531,6.485 z"
         style="fill:#d17128;fill-opacity:1;fill-rule:evenodd;stroke:none"
         id="path86" />
      <path
         d="m 497.586,411.117 c 0.012,4.723 -0.023,9.442 0.019,14.16 0.09,1.871 1.118,3.918 3.071,4.379 2.363,0.621 4.824,0.34 7.238,0.403 4.75,0 9.5,0 14.25,0 0,-1.426 0,-2.856 0,-4.282 -6.184,-0.007 -12.367,0.008 -18.551,-0.007 -1.004,0.035 -1.425,-1.02 -1.293,-1.872 0,-1.293 0,-2.582 0,-3.871 6.203,0 12.403,0 18.606,0 0,-1.39 0,-2.781 0,-4.172 -6.203,0 -12.403,0 -18.606,0 0.035,-1.593 -0.062,-3.191 0.055,-4.777 0.188,-1 1.297,-1.015 2.102,-0.973 5.894,0 11.793,0 17.687,0 0,-1.429 0,-2.855 0,-4.285 -6.391,0.012 -12.781,-0.019 -19.168,0.02 -1.965,0.047 -4.226,0.773 -4.98,2.777 -0.325,0.793 -0.43,1.656 -0.43,2.504 z"
         style="fill:#d17128;fill-opacity:1;fill-rule:evenodd;stroke:none"
         id="path88" />
      <path
         d="m 424.871,418.762 h -9.598 c 0,0 0.016,-4.992 0.032,-7.551 0.004,-0.93 1.769,-0.965 2.66,-0.969 3.379,-0.019 6.762,-0.082 10.137,0.067 1.785,0.175 2.394,1.894 2.406,3.601 0.023,1.469 0.316,3.403 -1.074,4.344 -1.653,0.699 -2.653,0.508 -4.559,0.508 z m -14.476,11.297 H 415 c 0,0 0.273,0 0.273,-1.903 v -5.027 c 3.516,0.016 7.036,-0.031 10.551,0.023 2.074,2.496 4.481,6.016 5.953,6.817 0.328,0.176 3.297,0.144 5.028,0.097 0.738,-0.007 0.351,-0.312 -0.961,-1.91 -1.543,-2.004 -3.254,-3.875 -4.879,-5.808 2.019,-0.801 3.668,-2.567 4.043,-4.746 0.367,-1.914 0.422,-3.832 0.043,-5.762 -0.574,-2.914 -3.024,-5.285 -5.942,-5.68 -2.953,-0.398 -6.316,-0.226 -8.961,-0.219 -2.644,0.004 -4.882,-0.293 -6.949,0.508 -2.07,0.801 -2.785,3.239 -2.785,5.168 0.012,6.293 -0.019,18.442 -0.019,18.442 z"
         style="fill:#d17128;fill-opacity:1;fill-rule:evenodd;stroke:none"
         id="path90" />
      <path
         d="m 248.516,365.863 -22,-0.004 c 0,0 0.035,-11.441 0.066,-17.3 0.012,-2.141 4.059,-2.215 6.102,-2.227 7.746,-0.043 15.504,-0.184 23.238,0.156 4.09,0.403 5.484,4.34 5.512,8.254 0.054,3.367 0.73,7.797 -2.457,9.957 -3.789,1.602 -6.086,1.168 -10.454,1.168 z m -33.184,25.899 h 10.555 c 0,0 0.629,0 0.629,-4.367 v -11.524 c 8.062,0.035 16.121,-0.066 24.183,0.055 4.754,5.726 10.27,13.793 13.649,15.625 0.746,0.406 7.554,0.336 11.519,0.226 1.696,-0.027 0.809,-0.718 -2.203,-4.382 -3.535,-4.59 -7.453,-8.875 -11.18,-13.317 4.629,-1.832 8.411,-5.875 9.266,-10.871 0.848,-4.387 0.965,-8.789 0.098,-13.211 -1.313,-6.683 -6.93,-12.121 -13.618,-13.023 -6.773,-0.91 -14.484,-0.512 -20.542,-0.5 -6.063,0.011 -11.188,-0.664 -15.93,1.164 -4.742,1.836 -6.383,7.422 -6.383,11.843 0.031,14.434 -0.047,42.282 -0.047,42.282 z"
         style="fill:#114b7c;fill-opacity:1;fill-rule:evenodd;stroke:none"
         id="path92" />
      <path
         d="m 554.305,418.762 -9.598,-0.004 c 0,0 0.016,-4.992 0.031,-7.547 0.004,-0.934 1.77,-0.965 2.66,-0.973 3.379,-0.015 6.762,-0.078 10.137,0.071 1.785,0.175 2.395,1.89 2.406,3.601 0.024,1.469 0.317,3.403 -1.074,4.344 -1.652,0.699 -2.652,0.508 -4.558,0.508 z m -14.477,11.297 h 4.606 c 0,0 0.273,0 0.273,-1.903 v -5.027 c 3.516,0.012 7.035,-0.031 10.551,0.023 2.074,2.496 4.48,6.016 5.953,6.817 0.328,0.176 3.297,0.144 5.027,0.097 0.739,-0.011 0.352,-0.312 -0.961,-1.91 -1.543,-2.004 -3.254,-3.875 -4.879,-5.812 2.02,-0.797 3.668,-2.563 4.043,-4.742 0.372,-1.914 0.422,-3.836 0.043,-5.762 -0.574,-2.918 -3.023,-5.289 -5.941,-5.68 -2.953,-0.398 -6.316,-0.226 -8.961,-0.219 -2.644,0.004 -4.883,-0.293 -6.949,0.508 -2.07,0.797 -2.785,3.239 -2.785,5.164 0.011,6.297 -0.02,18.446 -0.02,18.446 z"
         style="fill:#d17128;fill-opacity:1;fill-rule:evenodd;stroke:none"
         id="path94" />
      <path
         d="m 212.883,419.137 c -0.043,3.336 0.805,6.972 3.457,9.215 2.492,2.195 5.992,2.257 9.125,2.484 2.902,0.102 5.84,-0.277 8.543,-1.375 3.117,-1.211 4.765,-4.508 5.176,-7.664 0.257,-2.363 0.097,-4.746 0.14,-7.117 0,-2.981 0,-5.957 0,-8.934 -1.562,0 -3.129,0 -4.691,0 -0.004,5.242 0.23,10.504 -0.227,15.734 -0.16,1.739 -1,3.59 -2.73,4.243 -2.586,0.992 -5.442,0.847 -8.156,0.668 -2.012,-0.121 -4.301,-0.844 -5.165,-2.848 -0.964,-2.215 -0.648,-4.703 -0.785,-7.055 -0.05,-3.578 0.004,-7.16 0.008,-10.742 -1.562,0 -3.129,0 -4.691,0 0,4.465 0,8.926 0,13.391"
         style="fill:#d17128;fill-opacity:1;fill-rule:evenodd;stroke:none"
         id="path96" />
      <path
         d="m 467.555,425.879 h -9.137 v -15.676 c 3.512,0.02 7.027,-0.035 10.539,0.027 2.078,0.184 4.574,0.684 5.641,2.704 1.047,2.152 0.871,4.644 0.777,6.968 -0.121,2.008 -0.871,4.286 -2.855,5.161 -1.543,0.722 -3.293,0.8 -4.965,0.816 z m -13.762,3.949 c 0,0.406 0.832,0.297 1.418,0.336 4.426,-0.027 8.859,0.078 13.285,-0.09 3.152,-0.211 6.645,-0.621 9.035,-2.91 2.391,-2.371 2.774,-5.965 2.766,-9.164 -0.039,-3.098 -0.359,-6.555 -2.602,-8.914 -2.332,-2.305 -5.773,-2.848 -8.91,-3.09 -3.711,-0.152 -7.426,-0.047 -11.137,-0.078 h -3.855 z"
         style="fill:#d17128;fill-opacity:1;fill-rule:evenodd;stroke:none"
         id="path98" />
    </g>
  </g>
</svg>
